<svg width="644" height="126" viewBox="0 0 644 126" fill="none" xmlns="http://www.w3.org/2000/svg">
<path d="M243.433 109.017L246.653 108.464L249.781 107.267L252.541 105.426L254.933 103.032L256.865 100.178L258.245 96.955L258.981 93.5482L259.165 89.9573L258.613 86.4584L257.509 83.1437L255.761 80.1052L253.461 77.4351L250.793 75.3173L247.757 73.8441L244.537 73.0155L241.225 72.8313L238.005 73.3838L234.877 74.5807L232.117 76.4222L229.725 78.8162L227.793 81.6705L226.413 84.8932L225.677 88.2999L225.493 91.8909L226.045 95.3897L227.149 98.7044L228.897 101.743L231.197 104.413L233.865 106.531L236.901 108.004L240.121 108.833L243.433 109.017ZM273.333 85.3535L273.701 88.392L273.793 91.4305L273.609 94.469L273.057 97.5075L272.229 100.454L271.125 103.308L269.745 106.07L268.181 108.649L266.249 111.043L264.133 113.252L261.925 115.278L259.441 117.119L256.773 118.593L254.013 119.882L251.069 120.895L248.033 121.539L244.997 121.907L241.869 121.999L238.741 121.815L235.705 121.355L232.761 120.618L229.909 119.513L227.149 118.132L224.481 116.567L222.089 114.726L219.789 112.7L217.765 110.398L215.925 107.912L214.453 105.242L213.165 102.48L212.153 99.6252L211.601 96.6788L211.233 93.6403L211.141 90.6018L211.325 87.5633L211.877 84.5249L212.705 81.5784L213.809 78.7241L215.189 75.9619L216.753 73.3838L218.685 70.9898L220.801 68.78L223.193 66.7543L225.677 64.9128L228.345 63.4396L231.105 62.1506L234.049 61.1378L237.085 60.4932L240.121 60.1249L243.249 60.0329L246.377 60.217L249.413 60.6774L252.357 61.414L255.209 62.5189L257.969 63.9L260.637 65.4653L263.029 67.3068L265.329 69.3325L267.353 71.6343L269.193 74.1204L270.665 76.7905L271.953 79.5528L272.965 82.4071L273.333 85.3535Z" fill="white"/>
<path d="M575.276 97.8757L575.092 97.5074L574.724 97.3233H566.168L564.604 97.1391L563.5 96.4946L562.856 95.3897L562.672 93.8244V88.5761L562.856 87.195L563.5 86.1822L564.512 85.5377L565.892 85.3535L581.44 85.0773L585.12 85.2614L586.316 85.4456L587.512 85.8139L588.34 86.4584L588.984 87.6554L589.168 89.2207L589.352 106.07L589.168 108.188L588.524 110.122L587.512 111.779L586.132 113.252L583.004 115.738L579.416 117.856L575.368 119.513L571.228 120.71L566.904 121.355L562.58 121.539L558.44 121.171L554.392 120.25L551.724 119.329L549.24 118.224L546.848 116.935L544.64 115.462L541.42 112.608L538.66 109.201L536.268 105.334L534.336 100.914L533.6 98.152L533.14 95.0214L532.956 91.4305L533.14 87.4712L533.784 82.5913L535.256 77.8954L537.28 73.66L539.948 69.977L541.696 68.0434L543.628 66.294L547.952 63.4396L552.828 61.2298L558.072 59.8487L563.592 59.3883L569.204 59.7566L574.724 60.9536L580.152 63.0713L583.556 65.097L585.948 67.3989L586.592 68.6879L586.684 70.5294L586.316 72.463L585.58 74.1203L584.752 75.2253L583.648 76.3302L580.888 77.8954L579.784 77.9875L577.944 77.6192L575.276 76.3302L570.4 73.66L568.468 73.0154L566.72 72.6471L564.788 72.463L562.672 72.5551L559.912 73.0154L557.428 73.752L555.128 74.857L553.196 76.3302L551.356 78.632L549.792 81.2101L548.688 84.2486L547.952 87.8396L547.768 90.6018L547.86 93.272L548.32 95.8501L549.056 98.244L549.976 100.086L551.08 101.835L553.196 104.229L555.496 105.886L557.98 107.083L560.74 107.82L563.684 108.096L566.72 107.912L569.756 107.267L572.608 106.163L575.368 104.689L575.552 104.413L575.644 104.045L575.276 97.8757Z" fill="white"/>
<path d="M134.688 99.9014L132.756 98.7965L130.272 98.152L129.628 98.0599L120.796 96.4946L117.576 95.666L114.816 94.6531L112.332 93.4562L110.216 92.075L108.376 90.6018L106.904 88.7603L105.8 86.9188L104.972 84.8932L104.328 82.7754L103.96 80.3815V77.343L104.42 74.5808L105.064 72.6472L105.892 70.8057L108.284 67.3068L108.652 66.9385L111.412 64.5446L114.724 62.611L118.404 61.2299L122.544 60.4012L127.052 60.217L131.836 60.5853L136.62 61.5982L141.036 63.0714L143.704 64.4525L145.82 66.0178L147.292 67.7672L147.936 69.6087V70.7136L147.752 71.9106L146.556 74.3045L144.716 76.3302L142.784 77.4351L141.404 77.6192L139.932 77.4351L138.276 76.8826L136.436 76.054L132.204 74.3045L127.88 73.3838L123.832 73.2917L121.44 73.8442L119.324 75.0411L117.852 76.6985L117.392 78.4479L117.852 80.1053L119.048 81.5785L120.152 82.3151L121.624 82.9596L125.948 83.9724L134.688 85.6298L138.092 86.6426L140.852 87.7475L143.244 89.0366L145.176 90.6018L147.2 93.0879L148.672 95.9422L149.592 99.2569L149.776 102.848L149.592 105.61L149.04 108.096L148.12 110.49L146.924 112.608L144.532 115.37L141.496 117.764L137.908 119.606L133.768 120.895L129.168 121.631L124.2 121.815L119.14 121.355L114.264 120.25L111.872 119.421L109.48 118.316L107.364 117.119L105.616 115.83L104.236 114.541L103.132 113.16L102.488 111.779L102.212 110.306V110.122L102.304 108.925L102.672 107.728L104.052 105.426L104.972 104.505L106.076 103.861L107.18 103.492L108.284 103.308L109.48 103.492L111.136 104.229L115.828 106.623L119.232 107.912L122.728 108.556L127.052 108.649L131.468 107.82L133.4 106.991L134.78 105.702L135.424 104.597L135.7 103.308V101.559L135.148 100.178L134.688 99.9014Z" fill="white"/>
<path d="M307.832 100.546H308.016H308.108L308.2 100.454L310.316 95.9422L312.524 90.6018L322.92 63.7159L323.472 62.703L324.576 61.5981L326.048 60.8615L331.108 60.5853L333.684 60.8615L334.696 61.3219L335.432 61.9664L335.616 62.1506L336.444 63.6238L336.812 65.097V66.4781L336.444 67.8592L316.572 117.396L315.56 119.329L314.364 120.526L313.26 121.079L312.064 121.355L308.476 121.539H307.832H307.188L303.6 121.355L302.404 121.079L301.3 120.526L300.104 119.329L299 117.396L278.576 68.0434L278.208 66.6623L278.116 65.2811L278.484 63.8079L279.312 62.3347L279.496 62.1506L280.232 61.5061L281.244 61.0457L283.82 60.7695L288.88 60.9536L290.352 61.6902L291.456 62.7951L292.008 63.7159L302.864 90.4177L305.164 95.758L307.372 100.27L307.832 100.546Z" fill="white"/>
<path d="M492.108 96.0342L492.2 96.8629L492.844 97.2312L505.172 97.4154L505.816 97.1391L506 96.4025L505.908 96.2184L499.376 81.8547L499.1 81.4864L498.364 81.3943L497.812 81.9467L492.108 96.0342ZM511.612 110.49L511.06 109.846L510.232 109.661H486.68L486.036 109.846L485.576 110.398L482.08 118.777L481.436 119.882L480.332 120.526L479.044 120.987L477.02 121.447L474.904 121.539L472.696 121.355L470.396 120.802L469.568 120.342L468.924 119.698L468.556 118.869L468.464 117.856L468.924 115.554L469.752 113.16L489.992 65.5574L491.464 62.7951L492.292 61.8744L493.304 61.2298L495.328 60.5853L495.88 60.4932L499.468 60.217L502.044 60.3091L504.068 60.8615L505.54 61.8744L506.46 62.8872L507.104 64.1762L518.972 92.6275L527.252 113.252L527.896 115.278L528.172 116.935L528.08 118.316L527.62 119.513L526.976 120.158L526.148 120.71L523.94 121.355L521.272 121.539L518.972 121.355L517.04 120.71L515.568 119.605L514.372 117.856L511.612 110.49Z" fill="white"/>
<mask id="mask0_40_851" style="mask-type:luminance" maskUnits="userSpaceOnUse" x="0" y="0" width="644" height="126">
<path d="M0 7.62939e-06H644V125.222H0V7.62939e-06Z" fill="white"/>
</mask>
<g mask="url(#mask0_40_851)">
<path d="M349.784 60.7696H356.04C358.156 60.7696 359.904 62.519 359.904 64.6367V117.304C359.904 119.421 358.156 121.171 356.04 121.171H349.784C347.668 121.171 345.92 119.421 345.92 117.304V64.6367C345.92 62.519 347.576 60.7696 349.784 60.7696Z" fill="white"/>
<path d="M387.412 108.188L387.78 108.557L409.86 108.372L411.516 108.557L412.712 109.201L413.632 110.49L414 112.424L414.184 116.107L414 118.409L413.632 119.421L413.08 120.158L411.976 120.803L410.504 120.987L377.384 121.171L375.636 120.987L374.348 120.25L373.612 118.961L373.428 117.212L373.336 64.5447L373.52 63.3477L374.164 62.2428L374.992 61.4141L376.004 60.9537L378.672 60.5854L381.064 60.4934L383.272 60.6775L385.296 61.1379L385.848 61.322L386.308 61.6903L386.86 62.4269L387.228 63.4398L387.412 66.202L387.32 85.9982L387.412 108.188Z" fill="white"/>
<path d="M435.62 108.004L435.804 108.372L436.172 108.557H459.08L460.184 108.741L461.38 109.477L462.484 110.858L462.852 111.963L463.036 113.345L462.944 116.935L462.484 118.869L461.472 120.342L460 121.263L457.884 121.631H427.064L424.212 121.263L423.2 120.895L422.556 120.25L421.912 119.329L421.636 118.225L421.452 114.541V113.068L421.36 64.5447L421.544 63.5319L422.004 62.6111L422.648 61.9666L423.568 61.5062L427.248 60.8617L430.928 60.9538L433.412 61.6904L434.24 62.3349L434.884 63.0715L435.068 63.4398L435.344 65.8337L435.62 108.004Z" fill="white"/>
<path d="M174.708 107.452L174.892 108.096L175.536 108.28L200.652 108.465L201.94 108.649L202.952 109.109L203.872 110.122L204.516 111.595L204.792 113.529L204.884 115.923L204.424 118.317L203.32 119.974L201.664 120.987L199.364 121.263L168.728 121.447L165.416 121.355L162.38 120.803L161.552 120.434L160.908 119.79L160.448 119.053L160.264 118.132V67.3069L160.356 65.3734L160.632 63.9002L161.184 62.7953L161.92 61.8745L163.024 61.23L164.588 61.0458H199.548L201.664 61.3221L203.136 62.2428L203.78 63.3477L203.964 64.8209V64.913V67.6752L203.78 69.6088L203.228 71.1741L202.492 72.279L201.664 72.9235L200.56 73.3839L197.892 73.6601L174.248 73.5681L173.88 73.7522L173.972 74.2126V83.7884L174.156 84.3409L174.708 84.525H192.556L195.96 84.7092L197.892 85.2616L198.628 86.1824L199.272 88.3922L199.548 90.5099V92.5355L199.272 94.4691L199.088 94.9295L198.72 95.7582L198.076 96.4027L197.248 96.8631L196.328 97.0472H175.536L174.8 97.2314L174.616 97.968L174.708 107.452Z" fill="white"/>
<path d="M614.284 84.3409H634.984L636.18 84.525L637.192 84.9854L638.388 86.3665L639.032 88.4842L639.216 91.2465L638.848 94.377L638.112 95.9423L637.376 96.5868L636.456 97.0472L633.972 97.4155L614.468 97.0472L614.1 97.2314L613.916 97.5997V108.096L614.1 108.465L614.468 108.649H639.4L641.148 108.833L642.528 109.569L643.54 110.951L644 112.792L644.184 115.554L644.092 117.488L643.724 118.961L642.988 120.066L642.252 120.711L641.148 121.171L638.572 121.447L603.98 121.263L602.508 120.987L601.312 120.158L600.484 118.961L600.208 117.488V65.0051L600.484 63.5319L601.312 62.3349L602.508 61.5062L603.98 61.23L638.48 61.3221L640.872 61.5983L642.344 62.519L642.988 63.6239L643.264 65.0971L643.08 66.2941L643.172 68.8722L642.988 70.7137L642.528 72.1869L641.792 73.1998L640.688 73.8443L639.032 74.0284L614.192 74.3047L613.824 74.4888L613.64 74.8571V84.0646L613.824 84.4329L614.284 84.3409Z" fill="white"/>
<path d="M168.452 32.8708L131.284 2.20979C128.248 -0.368317 123.74 -0.368317 120.704 2.20979L97.98 20.901L75.256 2.20979C72.22 -0.368317 67.712 -0.368317 64.676 2.20979L29.9 30.8452V17.126C29.9 12.5222 26.128 8.74713 21.528 8.74713C16.928 8.74713 13.156 12.5222 13.156 17.126V44.5644V44.6564L3.036 52.9432C1.104 54.5085 0 56.9024 0 59.3885V116.567C0 121.171 3.77201 124.946 8.37201 124.946C12.972 124.946 16.744 121.171 16.744 116.567V63.3477L69.92 19.4278L84.824 31.6738L59.064 52.9432C57.132 54.5085 56.028 56.9024 56.028 59.3885V116.567C56.028 121.171 59.8 124.946 64.4 124.946C69 124.946 72.772 121.171 72.772 116.567V63.3477L126.04 19.4278L157.964 45.6693C161.552 48.6157 166.796 48.0632 169.648 44.5644C172.5 40.9734 171.948 35.7252 168.452 32.8708Z" fill="white"/>
</g>
</svg>
