<svg width="16" height="21" viewBox="0 0 16 21" fill="none" xmlns="http://www.w3.org/2000/svg">
<g id="g20">
<path id="path22" d="M10.9246 13.3494L10.2747 12.9777L9.43908 12.7609L9.22245 12.7299L6.25146 12.2034L5.16828 11.9246L4.23985 11.5839L3.40426 11.1813L2.69246 10.7167L2.0735 10.2211L1.57834 9.60164L1.20696 8.98218L0.928434 8.30078L0.711799 7.58839L0.588008 6.78309V5.76098L0.742747 4.83179L0.959381 4.18135L1.23791 3.56189L2.04255 2.38491L2.16635 2.26102L3.09478 1.45572L4.2089 0.805286L5.44681 0.340689L6.83946 0.0619338L8.35591 -1.14777e-05L9.96519 0.123879L11.5745 0.464586L13.06 0.960153L13.9575 1.42475L14.6693 1.95129L15.1644 2.53978L15.3811 3.15924V3.53092L15.3192 3.93357L14.9168 4.73887L14.2979 5.42028L13.648 5.79196L13.1838 5.8539L12.6886 5.79196L12.1315 5.60612L11.5126 5.32736L10.089 4.73887L8.63444 4.42914L7.27273 4.39817L6.46809 4.584L5.75629 4.98665L5.26113 5.54417L5.10639 6.13266L5.26113 6.69017L5.66345 7.18574L6.03482 7.43353L6.52999 7.65034L7.98453 7.99104L10.9246 8.54856L12.0696 8.88926L12.9981 9.26094L13.8027 9.69456L14.4526 10.2211L15.1335 11.0574L15.6286 12.0175L15.9381 13.1326L16 14.3405L15.9381 15.2697L15.7524 16.106L15.443 16.9113L15.0406 17.6237L14.236 18.5529L13.2147 19.3582L12.0077 19.9776L10.6151 20.4113L9.06771 20.659L7.39653 20.721L5.6944 20.5661L4.05416 20.1944L3.24952 19.9157L2.44488 19.544L1.73308 19.1414L1.14507 18.7077L0.680852 18.2741L0.309478 17.8095L0.0928432 17.3449L0 16.8493V16.7874L0.0309473 16.3848L0.154739 15.9821L0.618956 15.2078L0.928434 14.898L1.29981 14.6812L1.67118 14.5573L2.04255 14.4954L2.44488 14.5573L3.00194 14.8051L4.58027 15.6104L5.72534 16.044L6.90136 16.2609L8.35591 16.2918L9.8414 16.0131L10.4913 15.7343L10.9555 15.3007L11.1722 14.929L11.265 14.4954V13.9069L11.0793 13.4423L10.9246 13.3494Z" fill="white"/>
</g>
</svg>
