<svg width="15" height="21" viewBox="0 0 15 21" fill="none" xmlns="http://www.w3.org/2000/svg">
<g id="g56">
<path id="path58" d="M4.80132 7.88307H11.8621L12.27 7.94589L12.6152 8.10292L13.0232 8.57402L13.2429 9.29638L13.3056 10.2386L13.1801 11.3064L12.929 11.8403L12.678 12.0602L12.3642 12.2172L11.5169 12.3428L4.86408 12.2172L4.73856 12.28L4.6758 12.4057V15.986L4.73856 16.1117L4.86408 16.1745H13.3684L13.9646 16.2373L14.4353 16.4885L14.7805 16.9596L14.9374 17.5878L15.0002 18.53L14.9688 19.1895L14.8433 19.692L14.5922 20.0689L14.3412 20.2888L13.9646 20.4458L13.086 20.54L1.28663 20.4772L0.784529 20.383L0.376574 20.1003L0.0941436 19.692L0 19.1895V1.28764L0.0941436 0.785131L0.376574 0.376845L0.784529 0.0941841L1.28663 -3.87948e-05L13.0546 0.0313675L13.8705 0.12559L14.3726 0.439658L14.5922 0.81654L14.6864 1.31905L14.6236 1.72734L14.655 2.60673L14.5922 3.23486L14.4353 3.73737L14.1843 4.08285L13.8077 4.3027L13.2429 4.36551L4.76994 4.45973L4.64441 4.52254L4.58165 4.64817V7.78885L4.64441 7.91448L4.80132 7.88307Z" fill="white"/>
</g>
</svg>
