<svg width="19" height="21" viewBox="0 0 19 21" fill="none" xmlns="http://www.w3.org/2000/svg">
<g id="g16">
<path id="path18" d="M14.2577 12.9665L14.1957 12.8424L14.0717 12.7803H11.1892L10.6623 12.7183L10.2903 12.5012L10.0734 12.1289L10.0114 11.6016V9.83342L10.0734 9.36811L10.2903 9.02689L10.6313 8.80975L11.0962 8.74771L16.3343 8.65465L17.5741 8.71669L17.9771 8.77873L18.38 8.90281L18.659 9.11995L18.8759 9.52321L18.9379 10.0506L18.9999 15.7273L18.9379 16.4407L18.7209 17.0922L18.38 17.6505L17.9151 18.1468L16.8612 18.9844L15.6524 19.6979L14.2887 20.2562L12.8939 20.6595L11.4371 20.8766L9.98037 20.9387L8.5856 20.8146L7.22182 20.5044L6.32297 20.1942L5.4861 19.8219L4.68024 19.3877L3.93636 18.8913L2.85153 17.9297L1.92169 16.782L1.11582 15.4791L0.464924 13.9901L0.216965 13.0595L0.0619901 12.0048L0 10.795L0.0619901 9.46117L0.278955 7.8171L0.774873 6.23507L1.45676 4.80814L2.35562 3.56732L2.94452 2.9159L3.59541 2.32651L5.05218 1.36488L6.69491 0.620398L8.46162 0.155095L10.3213 -7.66347e-06L12.212 0.124072L14.0717 0.527336L15.9004 1.2408L17.0472 1.92325L17.8531 2.69876L18.07 3.13304L18.101 3.75344L17.9771 4.40487L17.7291 4.96324L17.4502 5.33548L17.0782 5.70772L16.1484 6.23507L15.7764 6.26609L15.1565 6.14201L14.2577 5.70772L12.6149 4.80814L11.964 4.59099L11.3751 4.46691L10.7242 4.40487L10.0114 4.43589L9.08152 4.59099L8.24465 4.83915L7.46978 5.2114L6.81889 5.70772L6.19899 6.48323L5.67207 7.3518L5.30013 8.37546L5.05218 9.58526L4.99019 10.5159L5.02118 11.4155L5.17616 12.284L5.42411 13.0905L5.73406 13.711L6.106 14.3003L6.81889 15.1069L7.59376 15.6652L8.43062 16.0685L9.36047 16.3167L10.3523 16.4097L11.3751 16.3477L12.398 16.1305L13.3588 15.7583L14.2887 15.262L14.3507 15.1689L14.3817 15.0448L14.2577 12.9665Z" fill="white"/>
</g>
</svg>
