<svg width="20" height="21" viewBox="0 0 20 21" fill="none" xmlns="http://www.w3.org/2000/svg">
<g id="g24">
<path id="path26" d="M10.1253 13.616H10.188H10.2194L10.2507 13.5846L10.9717 12.0473L11.724 10.2277L15.2663 1.06667L15.4544 0.721562L15.8306 0.345082L16.3322 0.0940953L18.0563 -2.51897e-05L18.934 0.0940953L19.2788 0.250963L19.5296 0.470575L19.5923 0.533321L19.8745 1.03529L19.9998 1.53727V2.00787L19.8745 2.47847L13.1033 19.3573L12.7585 20.0162L12.351 20.424L11.9748 20.6122L11.5673 20.7064L10.3447 20.7691H10.1253H9.90588L8.68332 20.7064L8.2758 20.6122L7.89963 20.424L7.4921 20.0162L7.11593 19.3573L0.156739 2.54121L0.0313472 2.07061L0 1.60001L0.125391 1.09804L0.40752 0.596067L0.470216 0.533321L0.720997 0.313709L1.06582 0.156841L1.94356 0.0627205L3.66768 0.125466L4.16925 0.376455L4.54542 0.752935L4.73351 1.06667L8.43254 10.1649L9.21623 11.9846L9.96857 13.5219L10.1253 13.616Z" fill="white"/>
</g>
</svg>
