<svg width="58" height="42" viewBox="0 0 58 42" fill="none" xmlns="http://www.w3.org/2000/svg">
<g id="g60">
<path id="path62" d="M56.7498 10.9808L44.2283 0.651395C43.2055 -0.217145 41.6868 -0.217145 40.664 0.651395L33.0085 6.9483L25.353 0.651395C24.3302 -0.217145 22.8115 -0.217145 21.7887 0.651395L10.073 10.2984V5.67651C10.073 4.12555 8.80227 2.85376 7.25257 2.85376C5.70288 2.85376 4.43213 4.12555 4.43213 5.67651V14.9202V14.9513L1.0228 17.743C0.371928 18.2703 0 19.0768 0 19.9143V39.1773C0 40.7282 1.27075 42 2.82045 42C4.37014 42 5.64089 40.7282 5.64089 39.1773V21.2481L23.5554 6.45199L28.5764 10.5775L19.8981 17.743C19.2472 18.2703 18.8753 19.0768 18.8753 19.9143V39.1773C18.8753 40.7282 20.146 42 21.6957 42C23.2454 42 24.5162 40.7282 24.5162 39.1773V21.2481L42.4616 6.45199L53.2165 15.2925C54.4253 16.2851 56.1919 16.099 57.1527 14.9202C58.1135 13.7105 57.9276 11.9424 56.7498 10.9808Z" fill="white"/>
</g>
</svg>
