<svg width="15" height="21" viewBox="0 0 15 21" fill="none" xmlns="http://www.w3.org/2000/svg">
<g id="g52">
<path id="path54" d="M4.85564 15.6002L4.91749 15.8169L5.13398 15.8788L13.5772 15.9407L14.0102 16.0026L14.3504 16.1574L14.6597 16.4979L14.8762 16.9931L14.969 17.6431L14.9999 18.4479L14.8453 19.2527L14.4741 19.8098L13.9174 20.1503L13.1442 20.2432L2.84534 20.3051L1.73195 20.2741L0.711335 20.0884L0.432986 19.9646L0.216493 19.7479L0.0618552 19.5003L0 19.1908V2.10476L0.0309274 1.45475L0.12371 0.959506L0.309276 0.588071L0.556697 0.278543L0.927828 0.0618704L1.4536 -3.44107e-05H13.2061L13.9174 0.0928266L14.4123 0.402355L14.6288 0.773787L14.6906 1.26903V1.29999V2.22857L14.6288 2.87858L14.4432 3.40478L14.1958 3.77622L13.9174 3.99289L13.5463 4.14765L12.6494 4.24051L4.701 4.20956L4.57729 4.27146L4.60821 4.42623V7.64533L4.67007 7.83105L4.85564 7.89295H10.8556L11.9999 7.95486L12.6494 8.14057L12.8968 8.4501L13.1133 9.19297L13.2061 9.90489V10.5859L13.1133 11.2359L13.0515 11.3906L12.9277 11.6692L12.7112 11.8859L12.4329 12.0406L12.1236 12.1025H5.13398L4.88656 12.1644L4.82471 12.4121L4.85564 15.6002Z" fill="white"/>
</g>
</svg>
