<svg width="21" height="21" viewBox="0 0 21 21" fill="none" xmlns="http://www.w3.org/2000/svg">
<g id="g28">
<path id="path30" d="M8.097 12.2658L8.1285 12.5495L8.34904 12.6757L12.5708 12.7387L12.7914 12.6441L12.8544 12.3919L12.8229 12.3288L10.586 7.4099L10.4914 7.28377L10.2394 7.25224L10.0504 7.44143L8.097 12.2658ZM14.7762 17.2162L14.5872 16.9955L14.3036 16.9324H6.23815L6.01761 16.9955L5.86008 17.1847L4.66286 20.0541L4.44232 20.4324L4.06425 20.6532L3.62317 20.8108L2.93004 20.9685L2.20541 21L1.44927 20.9369L0.661622 20.7477L0.37807 20.5901L0.157529 20.3694L0.0315059 20.0856L0 19.7387L0.157529 18.9504L0.441082 18.1306L7.37236 1.82881L7.87646 0.882866L8.16001 0.56755L8.50657 0.346828L9.1997 0.126109L9.38874 0.0945757L10.6175 -1.94744e-05L11.4996 0.0315136L12.1928 0.220702L12.6968 0.56755L13.0119 0.914397L13.2324 1.35584L17.2967 11.0991L20.1322 18.1622L20.3528 18.8559L20.4473 19.4234L20.4158 19.8964L20.2582 20.3063L20.0377 20.527L19.7542 20.7162L18.998 20.9369L18.0843 21L17.2967 20.9369L16.6351 20.7162L16.131 20.3378L15.7214 19.7387L14.7762 17.2162Z" fill="white"/>
</g>
</svg>
