<svg width="14" height="21" viewBox="0 0 14 21" fill="none" xmlns="http://www.w3.org/2000/svg">
<g id="g44">
<path id="path46" d="M4.82429 16.3465L4.95041 16.4727L12.5179 16.4096L13.0855 16.4727L13.4954 16.6936L13.8107 17.1354L13.9368 17.7981L13.9999 19.0604L13.9368 19.8493L13.8107 20.1965L13.6215 20.4489L13.2431 20.6698L12.7386 20.7329L1.38738 20.7961L0.788282 20.7329L0.346844 20.4805L0.0945939 20.0387L0.0315314 19.4391L0 1.38848L0.0630625 0.978238L0.283782 0.599555L0.567563 0.315542L0.914407 0.157755L1.82881 0.0315273L2.64863 -2.92353e-05L3.40538 0.0630858L4.09907 0.220872L4.28825 0.283986L4.44591 0.410214L4.6351 0.662668L4.76122 1.0098L4.82429 1.95651L4.79275 8.74127L4.82429 16.3465Z" fill="white"/>
</g>
</svg>
