<svg width="14" height="21" viewBox="0 0 14 21" fill="none" xmlns="http://www.w3.org/2000/svg">
<g id="g48">
<path id="path50" d="M4.79021 15.836L4.85202 15.9598L4.97564 16.0216H12.6709L13.0417 16.0835L13.4435 16.3309L13.8143 16.7949L13.938 17.166L13.9998 17.63L13.9689 18.8362L13.8143 19.4858L13.4744 19.9806L12.9799 20.2899L12.2691 20.4137H1.91608L0.958042 20.2899L0.618091 20.1662L0.401759 19.9497L0.185428 19.6404L0.0927138 19.2692L0.0309047 18.0321V17.5372L0 1.23717L0.0618091 0.896938L0.216332 0.58764L0.432664 0.371131L0.74171 0.216481L1.97789 -2.67439e-05L3.21407 0.0309026L4.0485 0.278343L4.32664 0.49485L4.54297 0.742289L4.60478 0.866008L4.69749 1.67018L4.79021 15.836Z" fill="white"/>
</g>
</svg>
