<svg width="22" height="21" viewBox="0 0 22 21" fill="none" xmlns="http://www.w3.org/2000/svg">
<g id="g12">
<path id="path14" d="M10.9435 16.6003L12.0347 16.4131L13.0948 16.0074L14.0301 15.3834L14.8408 14.5721L15.4955 13.6048L15.9632 12.5126L16.2126 11.3581L16.275 10.1412L16.0879 8.95542L15.7138 7.83209L15.1214 6.80237L14.3419 5.89747L13.4378 5.17979L12.4089 4.68053L11.3177 4.3997L10.1952 4.33729L9.10401 4.52451L8.04395 4.93016L7.10861 5.55423L6.29798 6.36552L5.64324 7.33283L5.17557 8.42496L4.92614 9.57949L4.86378 10.7964L5.05085 11.9822L5.42499 13.1055L6.01737 14.1352L6.79683 15.0401L7.70099 15.7578L8.72987 16.2571L9.8211 16.5379L10.9435 16.6003ZM21.0764 8.58097L21.2011 9.61069L21.2323 10.6404L21.1699 11.6701L20.9829 12.6998L20.7023 13.6984L20.3281 14.6657L19.8605 15.6018L19.3304 16.4755L18.6757 17.2868L17.9586 18.0357L17.2103 18.7221L16.3685 19.3462L15.4643 19.8455L14.529 20.2823L13.5313 20.6256L12.5024 20.844L11.4735 20.9688L10.4135 21L9.35343 20.9376L8.32455 20.7816L7.32686 20.5319L6.36033 20.1575L5.42499 19.6894L4.52083 19.159L3.71019 18.5349L2.93074 17.8484L2.24482 17.0683L1.62126 16.2259L1.12241 15.3209L0.685917 14.3848L0.342959 13.4175L0.155891 12.419L0.0311776 11.3893L0 10.3596L0.0623553 9.32986L0.249425 8.30014L0.530027 7.30163L0.904164 6.33432L1.37184 5.39821L1.90186 4.52451L2.5566 3.71322L3.2737 2.96433L4.08433 2.27785L4.92614 1.65378L5.83031 1.15452L6.76565 0.717673L7.76335 0.374433L8.79223 0.156008L9.8211 0.0311954L10.8812 -1.15631e-05L11.9412 0.0623985L12.9701 0.218416L13.9678 0.468043L14.9343 0.842488L15.8697 1.31054L16.7738 1.841L17.5845 2.46507L18.3639 3.15155L19.0498 3.93164L19.6734 4.77414L20.1722 5.67904L20.6087 6.61515L20.9517 7.58246L21.0764 8.58097Z" fill="white"/>
</g>
</svg>
