<svg width="32" height="32" viewBox="0 0 32 32" fill="none" xmlns="http://www.w3.org/2000/svg">
<g id="Component 1">
<path id="Vector" d="M31.6813 9.60015C31.6813 9.60015 31.3688 7.3939 30.4063 6.42514C29.1875 5.15015 27.825 5.1439 27.2 5.06889C22.725 4.7439 16.0063 4.7439 16.0063 4.7439H15.9937C15.9937 4.7439 9.27499 4.7439 4.8 5.06889C4.17501 5.1439 2.8125 5.15015 1.59375 6.42514C0.63125 7.3939 0.325 9.60015 0.325 9.60015C0.325 9.60015 0 12.1939 0 14.7814V17.2064C0 19.7939 0.31875 22.3877 0.31875 22.3877C0.31875 22.3877 0.63125 24.5939 1.5875 25.5627C2.80625 26.8376 4.40625 26.7939 5.11875 26.9313C7.68125 27.1751 16 27.2501 16 27.2501C16 27.2501 22.725 27.2376 27.2 26.9189C27.825 26.8439 29.1875 26.8376 30.4063 25.5627C31.3688 24.5939 31.6813 22.3877 31.6813 22.3877C31.6813 22.3877 32 19.8001 32 17.2064V14.7814C32 12.1939 31.6813 9.60015 31.6813 9.60015ZM12.6937 20.1501V11.1564L21.3375 15.6689L12.6937 20.1501Z" fill="#F9F0EC"/>
</g>
</svg>
