<svg width="32" height="32" viewBox="0 0 32 32" fill="none" xmlns="http://www.w3.org/2000/svg">
<g id="Component 10">
<path id="Vector" d="M25.3333 6H6.66667C6.29848 6 6 6.29848 6 6.66667V24C6 24.3682 6.29848 24.6667 6.66667 24.6667H25.3333C25.7015 24.6667 26 24.3682 26 24V6.66667C26 6.29848 25.7015 6 25.3333 6Z" stroke="#1E1C1B"/>
<path id="Vector_2" d="M25.3333 6H6.66667C6.29848 6 6 6.29848 6 6.66667V10.6667C6 11.0349 6.29848 11.3333 6.66667 11.3333H25.3333C25.7015 11.3333 26 11.0349 26 10.6667V6.66667C26 6.29848 25.7015 6 25.3333 6Z" stroke="#1E1C1B"/>
<path id="Vector_3" d="M9.66675 5H10.3334V3H9.66675V5ZM21.6667 5H22.3334V3H21.6667V5Z" fill="#1E1C1B"/>
<path id="Vector_4" d="M22.6667 19.3333C22.6667 18.2287 21.7713 17.3333 20.6667 17.3333C19.5622 17.3333 18.6667 18.2287 18.6667 19.3333C18.6667 20.4379 19.5622 21.3333 20.6667 21.3333C21.7713 21.3333 22.6667 20.4379 22.6667 19.3333Z" fill="#1E1C1B"/>
</g>
</svg>
