<svg width="32" height="32" viewBox="0 0 32 32" fill="none" xmlns="http://www.w3.org/2000/svg">
<g id="Component 1">
<path id="Vector" d="M16 2.88125C20.275 2.88125 20.7813 2.9 22.4625 2.97499C24.025 3.04375 24.8688 3.30625 25.4312 3.52501C26.175 3.8125 26.7125 4.1625 27.2688 4.71875C27.8312 5.28125 28.175 5.8125 28.4625 6.55625C28.6813 7.11875 28.9438 7.96875 29.0125 9.52499C29.0875 11.2125 29.1063 11.7187 29.1063 15.9875C29.1063 20.2625 29.0875 20.7688 29.0125 22.4501C28.9438 24.0125 28.6813 24.8562 28.4625 25.4187C28.175 26.1625 27.825 26.7 27.2688 27.2562C26.7063 27.8187 26.175 28.1625 25.4312 28.4501C24.8688 28.6688 24.0187 28.9312 22.4625 29C20.775 29.075 20.2688 29.0937 16 29.0937C11.725 29.0937 11.2188 29.075 9.5375 29C7.97501 28.9312 7.13125 28.6688 6.56875 28.4501C5.82501 28.1625 5.2875 27.8125 4.73125 27.2562C4.16875 26.6937 3.82499 26.1625 3.5375 25.4187C3.31875 24.8562 3.05625 24.0063 2.9875 22.4501C2.9125 20.7625 2.89375 20.2562 2.89375 15.9875C2.89375 11.7125 2.9125 11.2063 2.9875 9.52499C3.05625 7.9625 3.31875 7.11875 3.5375 6.55625C3.82499 5.8125 4.17501 5.27499 4.73125 4.71875C5.29375 4.15625 5.82501 3.8125 6.56875 3.52501C7.13125 3.30625 7.98125 3.04375 9.5375 2.97499C11.2188 2.9 11.725 2.88125 16 2.88125ZM16 0C11.6562 0 11.1125 0.0187499 9.40625 0.0937499C7.70625 0.16875 6.5375 0.44375 5.52499 0.837499C4.46875 1.25 3.57501 1.79375 2.6875 2.6875C1.79375 3.57499 1.25 4.46875 0.837499 5.51875C0.44375 6.5375 0.16875 7.7 0.0937501 9.4C0.0187501 11.1125 0 11.6562 0 16C0 20.3438 0.0187501 20.8875 0.0937501 22.5937C0.16875 24.2937 0.44375 25.4625 0.837499 26.475C1.25 27.5312 1.79375 28.425 2.6875 29.3125C3.57501 30.2 4.46875 30.7499 5.51875 31.1562C6.5375 31.5499 7.7 31.825 9.4 31.9C11.1063 31.975 11.6499 31.9937 15.9937 31.9937C20.3375 31.9937 20.8813 31.975 22.5875 31.9C24.2875 31.825 25.4562 31.5499 26.4688 31.1562C27.5187 30.7499 28.4125 30.2 29.3 29.3125C30.1875 28.425 30.7375 27.5312 31.1438 26.4813C31.5375 25.4625 31.8125 24.3 31.8875 22.6C31.9625 20.8937 31.9813 20.3499 31.9813 16.0063C31.9813 11.6625 31.9625 11.1188 31.8875 9.4125C31.8125 7.7125 31.5375 6.54375 31.1438 5.53125C30.7499 4.46875 30.2063 3.57499 29.3125 2.6875C28.425 1.8 27.5312 1.25 26.4813 0.84375C25.4625 0.45 24.3 0.175 22.6 0.1C20.8875 0.0187501 20.3438 0 16 0Z" fill="#F9F0EC"/>
<path id="Vector_2" d="M16 7.78125C11.4625 7.78125 7.78125 11.4625 7.78125 16C7.78125 20.5375 11.4625 24.2187 16 24.2187C20.5375 24.2187 24.2187 20.5375 24.2187 16C24.2187 11.4625 20.5375 7.78125 16 7.78125ZM16 21.3312C13.0562 21.3312 10.6688 18.9438 10.6688 16C10.6688 13.0562 13.0562 10.6688 16 10.6688C18.9438 10.6688 21.3312 13.0562 21.3312 16C21.3312 18.9438 18.9438 21.3312 16 21.3312Z" fill="#F9F0EC"/>
<path id="Vector_3" d="M26.4625 7.45611C26.4625 8.51861 25.6 9.37486 24.5437 9.37486C23.4812 9.37486 22.625 8.51236 22.625 7.45611C22.625 6.3936 23.4875 5.53735 24.5437 5.53735C25.6 5.53735 26.4625 6.39986 26.4625 7.45611Z" fill="#F9F0EC"/>
</g>
</svg>
