<svg width="13" height="17" viewBox="0 0 13 17" fill="none" xmlns="http://www.w3.org/2000/svg">
<g id="g20">
<path id="path22" d="M8.87634 10.8378L8.34829 10.536L7.66936 10.36L7.49334 10.3349L5.07938 9.90741L4.19929 9.6811L3.44493 9.4045L2.766 9.07761L2.18765 8.70042L1.68474 8.2981L1.28242 7.79519L0.980672 7.29228L0.754363 6.73908L0.578345 6.16073L0.477763 5.50695V4.67715L0.60349 3.92279L0.779508 3.39474L1.00582 2.89183L1.6596 1.9363L1.76018 1.83572L2.51454 1.18194L3.41978 0.653881L4.4256 0.276699L5.55714 0.0503918L6.78927 0.000101678L8.09683 0.100682L9.4044 0.377283L10.6114 0.779609L11.3406 1.15679L11.9189 1.58426L12.3213 2.06203L12.4973 2.56494V2.86668L12.447 3.19357L12.1201 3.84735L11.6172 4.40055L11.0891 4.7023L10.712 4.75259L10.3096 4.7023L9.85701 4.55143L9.35411 4.32512L8.19741 3.84735L7.01558 3.5959L5.90918 3.57075L5.2554 3.72163L4.67705 4.04852L4.27473 4.50114L4.149 4.9789L4.27473 5.43152L4.60162 5.83384L4.90336 6.03501L5.30569 6.21103L6.48752 6.48763L8.87634 6.94024L9.80672 7.21684L10.5611 7.51859L11.2149 7.87062L11.7429 8.2981L12.2961 8.97702L12.6984 9.75653L12.9499 10.6618L13.0002 11.6424L12.9499 12.3968L12.799 13.0757L12.5476 13.7295L12.2207 14.3079L11.5669 15.0622L10.7371 15.716L9.75643 16.2189L8.62489 16.5709L7.36762 16.7721L6.00976 16.8224L4.62676 16.6967L3.29405 16.3949L2.64027 16.1686L1.98649 15.8669L1.40814 15.54L0.930381 15.1879L0.5532 14.8359L0.251454 14.4587L0.0754361 14.0815L0 13.6792V13.6289L0.0251451 13.302L0.125727 12.9751L0.502909 12.3465L0.754363 12.0951L1.05611 11.919L1.35785 11.8185L1.6596 11.7682L1.98649 11.8185L2.43911 12.0196L3.72153 12.6734L4.65191 13.0254L5.60743 13.2015L6.78927 13.2266L7.99625 13.0003L8.52431 12.774L8.90149 12.4219L9.07751 12.1202L9.15294 11.7682V11.2904L9.00207 10.9132L8.87634 10.8378Z" fill="white"/>
</g>
</svg>
