<svg width="16" height="17" viewBox="0 0 16 17" fill="none" xmlns="http://www.w3.org/2000/svg">
<g id="g16">
<path id="path18" d="M11.5852 10.5274L11.5348 10.4267L11.4341 10.3763H9.09185L8.6637 10.3259L8.36148 10.1496L8.18518 9.84741L8.13481 9.41926V7.9837L8.18518 7.60593L8.36148 7.32889L8.63852 7.15259L9.0163 7.10222L13.2726 7.02667L14.28 7.07704L14.6074 7.12741L14.9348 7.22815L15.1615 7.40444L15.3378 7.73185L15.3881 8.16L15.4385 12.7689L15.3881 13.3481L15.2119 13.877L14.9348 14.3304L14.557 14.7333L13.7007 15.4133L12.7185 15.9926L11.6104 16.4459L10.477 16.7733L9.29333 16.9496L8.10963 17L6.9763 16.8993L5.86815 16.6474L5.13778 16.3956L4.45778 16.0933L3.80296 15.7407L3.19852 15.3378L2.31704 14.557L1.56148 13.6252L0.906666 12.5674L0.377778 11.3585L0.176296 10.603L0.0503706 9.74667L0 8.76444L0.0503706 7.68148L0.226667 6.34667L0.62963 5.06222L1.1837 3.9037L1.91407 2.8963L2.39259 2.36741L2.92148 1.88889L4.10518 1.10815L5.44 0.503704L6.87555 0.125926L8.38667 0L9.92296 0.100739L11.4341 0.428147L12.92 1.00741L13.8519 1.56148L14.5067 2.19111L14.683 2.5437L14.7081 3.04741L14.6074 3.5763L14.4059 4.02963L14.1793 4.33185L13.877 4.63407L13.1215 5.06222L12.8193 5.08741L12.3156 4.98667L11.5852 4.63407L10.2504 3.9037L9.72148 3.72741L9.24296 3.62667L8.71407 3.5763L8.13481 3.60148L7.37926 3.72741L6.69926 3.92889L6.06963 4.23111L5.54074 4.63407L5.03704 5.2637L4.60889 5.96889L4.30667 6.8L4.10518 7.78222L4.05481 8.53778L4.08 9.26815L4.20593 9.97333L4.40741 10.6281L4.65926 11.1319L4.96148 11.6104L5.54074 12.2652L6.17037 12.7185L6.85037 13.0459L7.60593 13.2474L8.41185 13.323L9.24296 13.2726L10.0741 13.0963L10.8548 12.7941L11.6104 12.3911L11.6607 12.3156L11.6859 12.2148L11.5852 10.5274Z" fill="white"/>
</g>
</svg>
