<svg width="47" height="34" viewBox="0 0 47 34" fill="none" xmlns="http://www.w3.org/2000/svg">
<g id="g60">
<path id="path62" d="M45.9777 8.88929L35.833 0.527422C35.0043 -0.175678 33.7739 -0.175678 32.9453 0.527422L26.7429 5.6249L20.5406 0.527422C19.7119 -0.175678 18.4815 -0.175678 17.6528 0.527422L8.16098 8.33685V4.59536C8.16098 3.33982 7.13144 2.31028 5.87591 2.31028C4.62037 2.31028 3.59083 3.33982 3.59083 4.59536V12.0783V12.1035L0.828654 14.3634C0.301329 14.7903 0 15.4432 0 16.1212V31.7149C0 32.9705 1.02954 34 2.28508 34C3.54061 34 4.57015 32.9705 4.57015 31.7149V17.2009L19.0841 5.22313L23.1521 8.56285L16.1211 14.3634C15.5938 14.7903 15.2924 15.4432 15.2924 16.1212V31.7149C15.2924 32.9705 16.322 34 17.5775 34C18.833 34 19.8626 32.9705 19.8626 31.7149V17.2009L34.4017 5.22313L43.1151 12.3797C44.0944 13.1832 45.5257 13.0326 46.3042 12.0783C47.0826 11.099 46.9319 9.66772 45.9777 8.88929Z" fill="white"/>
</g>
</svg>
