<svg width="17" height="17" viewBox="0 0 17 17" fill="none" xmlns="http://www.w3.org/2000/svg">
<g id="g28">
<path id="path30" d="M6.5601 9.92939L6.58562 10.1591L6.7643 10.2612L10.1847 10.3123L10.3634 10.2357L10.4145 10.0315L10.389 9.98044L8.57663 5.99844L8.50005 5.89633L8.29584 5.87081L8.14269 6.02396L6.5601 9.92939ZM11.9715 13.9369L11.8184 13.7582L11.5887 13.7072H5.05408L4.8754 13.7582L4.74778 13.9114L3.7778 16.2342L3.59912 16.5405L3.29281 16.7192L2.93545 16.8468L2.37389 16.9745L1.7868 17L1.17418 16.9489L0.536039 16.7958L0.306308 16.6682L0.127628 16.4895L0.0255258 16.2598L0 15.979L0.127628 15.3408L0.35736 14.6772L5.97301 1.48039L6.38142 0.714621L6.61115 0.459364L6.89193 0.280685L7.4535 0.102006L7.60665 0.0764785L8.60215 -9.93202e-05L9.31687 0.0254279L9.87844 0.178582L10.2868 0.459364L10.5421 0.740147L10.7208 1.09751L14.0136 8.98494L16.3109 14.7027L16.4896 15.2643L16.5662 15.7237L16.5406 16.1066L16.413 16.4384L16.2343 16.6171L16.0046 16.7703L15.392 16.9489L14.6517 17L14.0136 16.9489L13.4776 16.7703L13.0691 16.464L12.7373 15.979L11.9715 13.9369Z" fill="white"/>
</g>
</svg>
