<svg width="12" height="17" viewBox="0 0 12 17" fill="none" xmlns="http://www.w3.org/2000/svg">
<g id="g44">
<path id="path46" d="M3.94687 13.3627L4.05005 13.4659L10.2412 13.4143L10.7056 13.4659L11.0409 13.6465L11.2989 14.0076L11.4021 14.5493L11.4537 15.5812L11.4021 16.2261L11.2989 16.5099L11.1441 16.7162L10.8345 16.8968L10.4218 16.9484L1.13505 17L0.644913 16.9484L0.283762 16.742L0.0773896 16.3809L0.0257966 15.8908L0 1.13515L0.051593 0.799794L0.232169 0.490236L0.464337 0.258067L0.748099 0.129085L1.4962 0.0258985L2.16691 0.000102342L2.78602 0.0516965L3.35355 0.180679L3.50833 0.232271L3.63731 0.335458L3.79209 0.541829L3.89527 0.825592L3.94687 1.59949L3.92107 7.14573L3.94687 13.3627Z" fill="white"/>
</g>
</svg>
