<svg width="12" height="17" viewBox="0 0 12 17" fill="none" xmlns="http://www.w3.org/2000/svg">
<g id="g48">
<path id="path50" d="M3.99242 13.1879L4.04394 13.2909L4.14697 13.3424H10.5606L10.8697 13.3939L11.2045 13.6L11.5136 13.9864L11.6167 14.2955L11.6682 14.6818L11.6424 15.6864L11.5136 16.2273L11.2303 16.6394L10.8182 16.897L10.2258 17H1.59697L0.798485 16.897L0.515152 16.7939L0.334849 16.6136L0.154546 16.3561L0.0772728 16.047L0.0257577 15.0167V14.6045L0 1.0303L0.0515151 0.746972L0.180303 0.489396L0.360606 0.309092L0.618182 0.180304L1.64848 1.96515e-06L2.67879 0.0257591L3.37424 0.231821L3.60606 0.412123L3.78636 0.618184L3.83788 0.721214L3.91515 1.39091L3.99242 13.1879Z" fill="white"/>
</g>
</svg>
