<svg width="16" height="17" viewBox="0 0 16 17" fill="none" xmlns="http://www.w3.org/2000/svg">
<g id="g24">
<path id="path26" d="M8.10022 10.8839H8.15037H8.17545L8.20053 10.8589L8.77732 9.63003L9.3792 8.1755L12.213 0.852703L12.3635 0.576845L12.6644 0.275908L13.0657 0.0752847L14.445 4.97459e-05L15.1472 0.0752847L15.423 0.200675L15.6236 0.376221L15.6738 0.426376L15.8995 0.827626L15.9998 1.22887V1.60505L15.8995 1.98122L10.4826 15.4732L10.2068 15.9999L9.88076 16.3259L9.57982 16.4763L9.25381 16.5516L8.27576 16.6017H8.10022H7.92467L6.94662 16.5516L6.62061 16.4763L6.31967 16.3259L5.99366 15.9999L5.69272 15.4732L0.12539 2.03137L0.0250777 1.6552L0 1.27903L0.100312 0.877781L0.326015 0.476531L0.376171 0.426376L0.576795 0.25083L0.852654 0.12544L1.55484 0.0502051L2.93413 0.10036L3.33538 0.300986L3.63632 0.601923L3.78679 0.852703L6.746 8.12534L7.37295 9.57987L7.97482 10.8087L8.10022 10.8839Z" fill="white"/>
</g>
</svg>
