<svg width="18" height="17" viewBox="0 0 18 17" fill="none" xmlns="http://www.w3.org/2000/svg">
<g id="g12">
<path id="path14" d="M8.8663 13.4383L9.7504 13.2868L10.6092 12.9584L11.367 12.4532L12.0238 11.7964L12.5543 11.0134L12.9332 10.1293L13.1353 9.19463L13.1858 8.20948L13.0342 7.2496L12.7311 6.34024L12.2511 5.50665L11.6196 4.77411L10.8871 4.19313L10.0535 3.78897L9.16942 3.56163L8.26005 3.5111L7.37595 3.66266L6.51711 3.99105L5.7593 4.49625L5.10254 5.15301L4.57208 5.93607L4.19318 6.82018L3.9911 7.7548L3.94058 8.73995L4.09214 9.69983L4.39526 10.6092L4.8752 11.4428L5.5067 12.1753L6.23925 12.7563L7.07283 13.1605L7.95693 13.3878L8.8663 13.4383ZM17.0758 6.94648L17.1769 7.78006L17.2021 8.61365L17.1516 9.44723L17.0001 10.2808L16.7727 11.0891L16.4696 11.8722L16.0907 12.63L15.6613 13.3373L15.1308 13.994L14.5498 14.6003L13.9436 15.156L13.2616 15.6612L12.529 16.0654L11.7712 16.419L10.9629 16.6969L10.1293 16.8737L9.29572 16.9747L8.43687 17L7.57803 16.9495L6.74445 16.8232L5.93612 16.6211L5.15306 16.318L4.39526 15.9391L3.66271 15.5097L3.00595 15.0045L2.37445 14.4487L1.81873 13.8172L1.31353 13.1352L0.909363 12.4027L0.555721 11.6449L0.277861 10.8618L0.126301 10.0535L0.0252597 9.21989L0 8.38631L0.0505194 7.55272L0.202081 6.71914L0.429421 5.91081L0.732542 5.12775L1.11144 4.36995L1.54087 3.66266L2.07133 3.0059L2.65231 2.39966L3.30907 1.84394L3.9911 1.33874L4.72364 0.934575L5.48144 0.580933L6.28977 0.303072L7.12335 0.12625L7.95693 0.0252115L8.81578 -5.0107e-05L9.67462 0.0504713L10.5082 0.176772L11.3165 0.378851L12.0996 0.681974L12.8574 1.06088L13.5899 1.4903L14.2467 1.9955L14.8782 2.55122L15.4339 3.18272L15.9391 3.86475L16.3433 4.59729L16.6969 5.35509L16.9748 6.13816L17.0758 6.94648Z" fill="white"/>
</g>
</svg>
