<svg width="12" height="17" viewBox="0 0 12 17" fill="none" xmlns="http://www.w3.org/2000/svg">
<g id="g56">
<path id="path58" d="M3.84094 6.30125H9.48938L9.81574 6.35146L10.0919 6.47698L10.4182 6.85354L10.594 7.43094L10.6442 8.18406L10.5438 9.03761L10.3429 9.46438L10.1421 9.64011L9.89105 9.76563L9.21324 9.86605L3.89115 9.76563L3.79073 9.81584L3.74052 9.91625V12.7781L3.79073 12.8785L3.89115 12.9288H10.6944L11.1714 12.979L11.5479 13.1798L11.8241 13.5564L11.9496 14.0584L11.9998 14.8116L11.9747 15.3388L11.8743 15.7404L11.6734 16.0417L11.4726 16.2174L11.1714 16.3429L10.4684 16.4182L1.02927 16.368L0.627605 16.2927L0.30125 16.0668L0.0753126 15.7404L0 15.3388V1.02937L0.0753126 0.627702L0.30125 0.301349L0.627605 0.075411L1.02927 9.76802e-05L10.4433 0.0252015L11.0961 0.100515L11.4977 0.351557L11.6734 0.652807L11.7488 1.05447L11.6986 1.38083L11.7237 2.08375L11.6734 2.58583L11.5479 2.9875L11.3471 3.26364L11.0458 3.43937L10.594 3.48958L3.81584 3.56489L3.71542 3.6151L3.66521 3.71552V6.22594L3.71542 6.32635L3.84094 6.30125Z" fill="white"/>
</g>
</svg>
