<svg width="13" height="17" viewBox="0 0 13 17" fill="none" xmlns="http://www.w3.org/2000/svg">
<g id="g52">
<path id="path54" d="M4.06862 13.061L4.12045 13.2424L4.30185 13.2942L11.3766 13.346L11.7394 13.3978L12.0245 13.5274L12.2836 13.8125L12.465 14.2271L12.5428 14.7713L12.5687 15.4451L12.4391 16.1189L12.1281 16.5854L11.6617 16.8704L11.0138 16.9482L2.38416 17L1.45123 16.9741L0.59604 16.8186L0.362807 16.7149L0.181403 16.5335L0.0518295 16.3262L0 16.0671V1.7621L0.0259146 1.21789L0.103659 0.803257L0.259148 0.49228L0.466466 0.233133L0.777444 0.051728L1.218 -0.000100834H11.0656L11.6617 0.0776443L12.0763 0.336792L12.2577 0.647768L12.3095 1.06241V1.08832V1.86576L12.2577 2.40997L12.1022 2.85052L11.8949 3.1615L11.6617 3.34291L11.3507 3.47248L10.5991 3.55022L3.93905 3.52431L3.83539 3.57614L3.8613 3.70571V6.40085L3.91313 6.55634L4.06862 6.60817H9.09609L10.0549 6.66L10.5991 6.81549L10.8065 7.07464L10.9879 7.69659L11.0656 8.29263V8.86276L10.9879 9.40697L10.936 9.53654L10.8324 9.76977L10.651 9.95118L10.4177 10.0808L10.1586 10.1326H4.30185L4.09454 10.1844L4.04271 10.3917L4.06862 13.061Z" fill="white"/>
</g>
</svg>
